# xmcd
#
# Track frame offsets:
#	150
#	16783
#	35148
#	52742
#	69285
#	82765
#	97615
#	115128
#	136034
#	152814
#	169044
#	185964
#	202367
#	219866
#	235158
#	260191
#	275988
#	294072
#
# Disc length: 4145 seconds
#
# Revision: 0
# Processed by: cddbd v1.5.2PL0 Copyright (c) Steve Scherf et al.
# Submitted via: audiograbber 1.83.01
#
DISCID=f7102f12
DTITLE=—борник - Woman 2 Woman CD3
DYEAR=1900
DGENRE=
TTITLE0=Vanessa Williams - Save The Best For Last
TTITLE1=Yazz and The Plastic Poulation - The Only Way Is Up
TTITLE2=Ultra Nate - Free
TTITLE3=Thelma Houston - Don't Leave Me This Way
TTITLE4=Jackson Sisters - I Believe In Miracles
TTITLE5=Gloria Gaynor - I Will Surive
TTITLE6=Naice - I Love Your Smile
TTITLE7=Shirley Jones - She Knew About Me
TTITLE8=The Jones Girls - Night Over Egypt
TTITLE9=Gwen Guthrie - Ain't Nothin' Goin' On But The Rent
TTITLE10=Pebbles - Girlfriend
TTITLE11=Teena Marie - I Need Your Lovin'
TTITLE12=Linda Clifford - Runaway Love
TTITLE13=Alicia Bridges - I Love The Nightlife (Disco 'Round)
TTITLE14=The Mary Jane Girls - All Night Long
TTITLE15=Cathy Dennis - Touch Me (All Night Long)
TTITLE16=Beats International Featuring Lindy Layton - Du Be Good To Me
TTITLE17=Ce Ce Peniston - Finally
EXTD=
EXTT0=
EXTT1=
EXTT2=
EXTT3=
EXTT4=
EXTT5=
EXTT6=
EXTT7=
EXTT8=
EXTT9=
EXTT10=
EXTT11=
EXTT12=
EXTT13=
EXTT14=
EXTT15=
EXTT16=
EXTT17=
PLAYORDER=
